<svg width="305" height="41" viewBox="0 0 305 41" fill="none" xmlns="http://www.w3.org/2000/svg">
<path d="M20.1923 40.2301C17.4378 40.2301 14.875 39.7245 12.504 38.7134C10.1679 37.7022 8.12818 36.3075 6.3848 34.5293C4.6763 32.7162 3.3339 30.5893 2.35761 28.1485C1.38132 25.7078 0.893171 23.023 0.893171 20.0941C0.893171 17.2001 1.36388 14.5328 2.3053 12.092C3.28159 9.61646 4.64143 7.48954 6.3848 5.7113C8.12818 3.89818 10.1679 2.50348 12.504 1.52719C14.8402 0.516036 17.4029 0.0104575 20.1923 0.0104575C22.9469 0.0104575 25.405 0.481169 27.5668 1.42259C29.7635 2.36401 31.6114 3.60181 33.1107 5.13598C34.61 6.63528 35.6909 8.27406 36.3534 10.0523L30.8095 12.6674C29.9727 10.5753 28.6303 8.88424 26.7823 7.59414C24.9692 6.26917 22.7725 5.60669 20.1923 5.60669C17.6121 5.60669 15.3283 6.21687 13.3409 7.43724C11.3534 8.6576 9.80182 10.3487 8.68606 12.5105C7.60517 14.6722 7.06472 17.2001 7.06472 20.0941C7.06472 22.9881 7.60517 25.5335 8.68606 27.7301C9.80182 29.8919 11.3534 31.583 13.3409 32.8033C15.3283 33.9888 17.6121 34.5816 20.1923 34.5816C22.7725 34.5816 24.9692 33.9365 26.7823 32.6464C28.6303 31.3563 29.9727 29.6653 30.8095 27.5732L36.3534 30.1883C35.6909 31.9317 34.61 33.5704 33.1107 35.1046C31.6114 36.6388 29.7635 37.8766 27.5668 38.818C25.405 39.7594 22.9469 40.2301 20.1923 40.2301ZM55.2644 40.2301C52.5447 40.2301 50.0517 39.5851 47.7853 38.295C45.5538 37.0049 43.7756 35.2441 42.4506 33.0126C41.1256 30.781 40.4632 28.2531 40.4632 25.4289C40.4632 22.5697 41.1256 20.0418 42.4506 17.8452C43.7756 15.6137 45.5538 13.8703 47.7853 12.6151C50.0169 11.325 52.5099 10.6799 55.2644 10.6799C58.0538 10.6799 60.5468 11.325 62.7435 12.6151C64.975 13.8703 66.7358 15.6137 68.0259 17.8452C69.3509 20.0418 70.0134 22.5697 70.0134 25.4289C70.0134 28.288 69.3509 30.8333 68.0259 33.0649C66.701 35.2964 64.9227 37.0572 62.6912 38.3473C60.4597 39.6025 57.9841 40.2301 55.2644 40.2301ZM55.2644 34.7385C56.9381 34.7385 58.4199 34.3375 59.71 33.5356C61.0001 32.7336 62.0113 31.6353 62.7435 30.2406C63.5106 28.811 63.8941 27.2071 63.8941 25.4289C63.8941 23.6506 63.5106 22.0642 62.7435 20.6695C62.0113 19.2748 61.0001 18.1764 59.71 17.3745C58.4199 16.5725 56.9381 16.1715 55.2644 16.1715C53.6256 16.1715 52.1438 16.5725 50.8188 17.3745C49.5287 18.1764 48.5001 19.2748 47.733 20.6695C47.0008 22.0642 46.6347 23.6506 46.6347 25.4289C46.6347 27.2071 47.0008 28.811 47.733 30.2406C48.5001 31.6353 49.5287 32.7336 50.8188 33.5356C52.1438 34.3375 53.6256 34.7385 55.2644 34.7385ZM75.7833 39.6025V11.3075H81.4318V17.4268L80.6996 16.4854C81.2923 14.5676 82.3732 13.1206 83.9423 12.1443C85.5113 11.1681 87.307 10.6799 89.3293 10.6799C91.5957 10.6799 93.6006 11.2901 95.3439 12.5105C97.1222 13.696 98.3077 15.2824 98.9004 17.2699L97.2268 17.4268C98.0636 15.1604 99.3363 13.4693 101.045 12.3536C102.788 11.2378 104.776 10.6799 107.007 10.6799C108.96 10.6799 110.72 11.1332 112.29 12.0397C113.893 12.9463 115.166 14.2015 116.108 15.8054C117.049 17.4093 117.52 19.2399 117.52 21.2971V39.6025H111.61V22.9184C111.61 21.4888 111.348 20.2859 110.825 19.3096C110.337 18.2985 109.64 17.5314 108.733 17.0084C107.861 16.4505 106.833 16.1715 105.647 16.1715C104.462 16.1715 103.416 16.4505 102.509 17.0084C101.603 17.5314 100.888 18.2985 100.365 19.3096C99.8418 20.3208 99.5803 21.5237 99.5803 22.9184V39.6025H93.7226V22.9184C93.7226 21.4888 93.4611 20.2859 92.9381 19.3096C92.4499 18.2985 91.7526 17.5314 90.846 17.0084C89.9743 16.4505 88.9283 16.1715 87.7079 16.1715C86.5224 16.1715 85.4764 16.4505 84.5699 17.0084C83.6633 17.5314 82.9485 18.2985 82.4255 19.3096C81.9374 20.3208 81.6933 21.5237 81.6933 22.9184V39.6025H75.7833ZM123.845 39.6025V11.3075H129.494V17.4268L128.762 16.4854C129.354 14.5676 130.435 13.1206 132.004 12.1443C133.573 11.1681 135.369 10.6799 137.391 10.6799C139.658 10.6799 141.663 11.2901 143.406 12.5105C145.184 13.696 146.37 15.2824 146.962 17.2699L145.289 17.4268C146.126 15.1604 147.398 13.4693 149.107 12.3536C150.85 11.2378 152.838 10.6799 155.069 10.6799C157.022 10.6799 158.782 11.1332 160.352 12.0397C161.955 12.9463 163.228 14.2015 164.17 15.8054C165.111 17.4093 165.582 19.2399 165.582 21.2971V39.6025H159.672V22.9184C159.672 21.4888 159.41 20.2859 158.887 19.3096C158.399 18.2985 157.702 17.5314 156.795 17.0084C155.923 16.4505 154.895 16.1715 153.709 16.1715C152.524 16.1715 151.478 16.4505 150.571 17.0084C149.665 17.5314 148.95 18.2985 148.427 19.3096C147.904 20.3208 147.642 21.5237 147.642 22.9184V39.6025H141.785V22.9184C141.785 21.4888 141.523 20.2859 141 19.3096C140.512 18.2985 139.815 17.5314 138.908 17.0084C138.036 16.4505 136.99 16.1715 135.77 16.1715C134.584 16.1715 133.538 16.4505 132.632 17.0084C131.725 17.5314 131.011 18.2985 130.488 19.3096C129.999 20.3208 129.755 21.5237 129.755 22.9184V39.6025H123.845ZM182.001 40.2301C179.874 40.2301 178.009 39.7594 176.405 38.818C174.801 37.8417 173.546 36.4993 172.639 34.7908C171.768 33.0474 171.332 31.0425 171.332 28.7761V11.3075H177.242V28.2531C177.242 29.5432 177.503 30.6764 178.026 31.6527C178.549 32.629 179.282 33.3961 180.223 33.954C181.165 34.477 182.245 34.7385 183.466 34.7385C184.721 34.7385 185.819 34.4596 186.761 33.9017C187.702 33.3438 188.434 32.5593 188.957 31.5481C189.515 30.537 189.794 29.3515 189.794 27.9916V11.3075H195.652V39.6025H190.056V34.0586L190.683 34.7908C190.021 36.5342 188.923 37.8766 187.388 38.818C185.854 39.7594 184.059 40.2301 182.001 40.2301ZM202.552 39.6025V11.3075H208.201V16.8515L207.521 16.1192C208.218 14.341 209.334 12.9986 210.868 12.092C212.403 11.1506 214.181 10.6799 216.203 10.6799C218.295 10.6799 220.143 11.1332 221.747 12.0397C223.351 12.9463 224.606 14.2015 225.513 15.8054C226.419 17.4093 226.873 19.2573 226.873 21.3494V39.6025H221.015V22.9184C221.015 21.4888 220.753 20.2859 220.23 19.3096C219.707 18.2985 218.958 17.5314 217.981 17.0084C217.04 16.4505 215.959 16.1715 214.739 16.1715C213.518 16.1715 212.42 16.4505 211.444 17.0084C210.502 17.5314 209.77 18.2985 209.247 19.3096C208.724 20.3208 208.463 21.5237 208.463 22.9184V39.6025H202.552ZM233.198 39.6025V11.3075H239.108V39.6025H233.198ZM233.198 7.43724V0.638071H239.108V7.43724H233.198ZM259.668 40.2301C256.949 40.2301 254.456 39.5851 252.189 38.295C249.958 37.0049 248.179 35.2441 246.855 33.0126C245.53 30.781 244.867 28.2531 244.867 25.4289C244.867 22.5697 245.53 20.0418 246.855 17.8452C248.179 15.6137 249.958 13.8703 252.189 12.6151C254.421 11.325 256.914 10.6799 259.668 10.6799C262.458 10.6799 264.951 11.325 267.147 12.6151C269.379 13.8703 271.14 15.6137 272.43 17.8452C273.755 20.0418 274.417 22.5697 274.417 25.4289C274.417 28.288 273.755 30.8333 272.43 33.0649C271.105 35.2964 269.327 37.0572 267.095 38.3473C264.864 39.6025 262.388 40.2301 259.668 40.2301ZM259.668 34.7385C261.342 34.7385 262.824 34.3375 264.114 33.5356C265.404 32.7336 266.415 31.6353 267.147 30.2406C267.915 28.811 268.298 27.2071 268.298 25.4289C268.298 23.6506 267.915 22.0642 267.147 20.6695C266.415 19.2748 265.404 18.1764 264.114 17.3745C262.824 16.5725 261.342 16.1715 259.668 16.1715C258.03 16.1715 256.548 16.5725 255.223 17.3745C253.933 18.1764 252.904 19.2748 252.137 20.6695C251.405 22.0642 251.039 23.6506 251.039 25.4289C251.039 27.2071 251.405 28.811 252.137 30.2406C252.904 31.6353 253.933 32.7336 255.223 33.5356C256.548 34.3375 258.03 34.7385 259.668 34.7385ZM280.187 39.6025V11.3075H285.836V16.8515L285.156 16.1192C285.853 14.341 286.969 12.9986 288.503 12.092C290.037 11.1506 291.815 10.6799 293.838 10.6799C295.93 10.6799 297.778 11.1332 299.382 12.0397C300.986 12.9463 302.241 14.2015 303.147 15.8054C304.054 17.4093 304.507 19.2573 304.507 21.3494V39.6025H298.65V22.9184C298.65 21.4888 298.388 20.2859 297.865 19.3096C297.342 18.2985 296.592 17.5314 295.616 17.0084C294.675 16.4505 293.594 16.1715 292.373 16.1715C291.153 16.1715 290.055 16.4505 289.078 17.0084C288.137 17.5314 287.405 18.2985 286.882 19.3096C286.359 20.3208 286.097 21.5237 286.097 22.9184V39.6025H280.187Z" fill="#1F2A37"/>
</svg>
